:version 1.10
:name ASF
:units
  mass 1
  length 1
  angle deg
:documentation
  ASF file generated by Kaydara
:root
  axis xyz
  order  tx ty tz rx ry rz
  position 0 0 0
  orientation 0 0 0
:bonedata
  begin
    id 1
    name LeftUpLegDummy
    direction 1 -2.30186e-007 -8.31532e-007
    length 2.93387
    axis 0 0 0 xyz
  end
  begin
    id 2
    name LeftUpLeg
    direction -1.82929e-007 -1 -1.48925e-009
    length 17.3336
    axis -3.48766 0.00143442 -0.000521554 xyz
    dof rx ry rz
  end
  begin
    id 3
    name LeftLeg
    direction -1.82929e-007 -1 -5.23717e-011
    length 14.9995
    axis 3.68178 -0.00654042 -0.000282425 xyz
    dof rx ry rz
  end
  begin
    id 4
    name LeftFoot
    direction 8.31532e-007 -4.54534e-011 1
    length 6.74421
    axis 1.87234e-006 4.66016e-005 -5.96866e-006 xyz
    dof rx ry rz
  end
  begin
    id 5
    name LeftToes
    direction 0.00818058 -0.00485161 0.999955
    length 3.85048
    axis 1.06247e-005 4.65869e-005 -5.96999e-006 xyz
    dof rx ry rz
  end
  begin
    id 6
    name SpineDummy
    direction -5.8607e-008 0.943407 -0.331637
    length 5.93572
    axis 0 0 0 xyz
  end
  begin
    id 7
    name Spine
    direction -1.04988e-007 0.999988 0.00495137
    length 10.1015
    axis -0.001389 0.000121417 6.61666e-006 xyz
    dof rx ry rz
  end
  begin
    id 8
    name Spine1
    direction 0 0 0
    length 0
    axis -0.001389 0.00012144 6.56766e-006 xyz
    dof rx ry rz
  end
  begin
    id 9
    name RightShoulderDummy
    direction -0.98348 0.17941 -0.0240696
    length 3.59882
    axis -0.001389 0.00012144 6.56766e-006 xyz
  end
  begin
    id 10
    name RightShoulder
    direction -0.978693 0.204882 0.0135597
    length 2.70001
    axis 0.215806 0.000203631 -0.00679732 xyz
    dof rx ry rz
  end
  begin
    id 11
    name RightArm
    direction -1 3.85509e-006 8.31394e-007
    length 10.2459
    axis -23.2009 -0.134239 -0.964098 xyz
    dof rx ry rz
  end
  begin
    id 12
    name RightForeArm
    direction -1 3.85569e-006 8.3129e-007
    length 8.16799
    axis -9.92322 0.0658061 0.17887 xyz
    dof rx ry rz
  end
  begin
    id 13
    name RightHand
    direction -0.992843 -0.0414604 0.112003
    length 5.28593
    axis -0.00960638 0.00330669 -0.185225 xyz
    dof rx ry rz
  end
  begin
    id 14
    name LeftShoulder1Dummy
    direction 0.983523 0.179172 -0.0240748
    length 3.59866
    axis -0.001389 0.00012144 6.56766e-006 xyz
  end
  begin
    id 15
    name LeftShoulder1
    direction 0.978627 0.205195 0.0135605
    length 2.70019
    axis -0.001389 0.00012144 6.57583e-006 xyz
    dof rx ry rz
  end
  begin
    id 16
    name LeftArm
    direction 1 3.51895e-006 -8.60188e-007
    length 10.2459
    axis -23.1894 0.134785 0.967513 xyz
    dof rx ry rz
  end
  begin
    id 17
    name LeftForeArm
    direction 1 3.51921e-006 -7.32029e-007
    length 8.16799
    axis -9.91835 -0.0656957 -0.177789 xyz
    dof rx ry rz
  end
  begin
    id 18
    name LeftHand
    direction 0.992938 -0.0411636 0.11126
    length 5.32135
    axis -0.00960237 -0.00340661 0.185177 xyz
    dof rx ry rz
  end
  begin
    id 19
    name HEadDummy
    direction 1.01974e-006 0.999861 -0.016675
    length 2.99946
    axis -0.001389 0.00012144 6.56766e-006 xyz
  end
  begin
    id 20
    name HEad
    direction -0.0222689 0.980941 0.193023
    length 5.12695
    axis -0.001389 0.00012144 6.56766e-006 xyz
    dof rx ry rz
  end
  begin
    id 21
    name RightUpLegDummy
    direction -1 2.30186e-007 8.31532e-007
    length 2.93387
    axis 0 0 0 xyz
  end
  begin
    id 22
    name RightUpLeg
    direction -1.82966e-007 -1 1.56832e-007
    length 17.3336
    axis -3.4909 -0.000906625 0.00028951 xyz
    dof rx ry rz
  end
  begin
    id 23
    name RightLeg
    direction -1.82786e-007 -1 -1.80317e-007
    length 14.9995
    axis 3.68513 0.0193739 -0.131021 xyz
    dof rx ry rz
  end
  begin
    id 24
    name RightFoot
    direction 8.31721e-007 -4.63324e-011 1
    length 6.74421
    axis 4.81691e-005 -0.120479 -0.188785 xyz
    dof rx ry rz
  end
  begin
    id 25
    name RightToes
    direction 0.00124746 -0.014064 0.9999
    length 3.85082
    axis 0.000481921 0.542163 -0.142575 xyz
    dof rx ry rz
  end
:hierarchy
  begin
    root LeftUpLegDummy SpineDummy RightUpLegDummy
    LeftUpLegDummy LeftUpLeg
    LeftUpLeg LeftLeg
    LeftLeg LeftFoot
    LeftFoot LeftToes
    SpineDummy Spine
    Spine Spine1
    Spine1 RightShoulderDummy LeftShoulder1Dummy HEadDummy
    RightShoulderDummy RightShoulder
    RightShoulder RightArm
    RightArm RightForeArm
    RightForeArm RightHand
    LeftShoulder1Dummy LeftShoulder1
    LeftShoulder1 LeftArm
    LeftArm LeftForeArm
    LeftForeArm LeftHand
    HEadDummy HEad
    RightUpLegDummy RightUpLeg
    RightUpLeg RightLeg
    RightLeg RightFoot
    RightFoot RightToes
  end

:SAMPLES-PER-SECOND 30
:FULLY-SPECIFIED
:DEGREES
24
root  -27.9104 34.0715 -25.6054 5.65517 46.6765 -1.35594
LeftUpLeg  -10.0827 10.442 -2.59658
LeftLeg  12.1311 6.69709 0.991075
LeftFoot  -2.57297 -0.00629002 -0.280098
LeftToes  -9.79433 6.91067e-007 1.07128e-007
Spine  1.76973 0.437673 -0.959893
Spine1  3.39384 0.883463 -1.78112
RightShoulder  0.0269548 6.26335 5.49473
RightArm  -32.682 -7.63448 76.5975
RightForeArm  22.2969 21.5503 3.9887
RightHand  0.338913 -5.78457 -6.32331
LeftShoulder1  0.0317872 -0.788507 -8.96334
LeftArm  -19.6051 16.9999 -64.6404
LeftForeArm  26.9661 -16.1231 -2.91628
LeftHand  0.205672 5.49936 3.90549
HEad  -3.54666 -11.1618 1.09458
RightUpLeg  -14.7895 -9.33817 -0.816837
RightLeg  11.7316 2.86419 0.406099
RightFoot  5.46792 0.0109544 0.28965
RightToes  -30.3646 -0.148143 -0.256182
25
root  -27.881 34.0678 -25.6207 5.47975 46.3828 -1.45741
LeftUpLeg  -10.0296 10.5968 -2.56622
LeftLeg  12.3129 6.82724 1.03234
LeftFoot  -2.72784 -0.0071979 -0.302321
LeftToes  -9.61025 6.91067e-007 1.07128e-007
Spine  1.77092 0.53756 -1.01451
Spine1  3.41002 1.08473 -1.87506
RightShoulder  0.0242661 6.37321 5.5208
RightArm  -32.6983 -8.8651 76.1418
RightForeArm  23.2412 20.2668 3.72884
RightHand  0.335461 -5.83139 -6.23677
LeftShoulder1  0.032141 -0.750616 -9.0303
LeftArm  -20.537 17.5855 -63.9432
LeftForeArm  27.062 -15.7761 -2.85018
LeftHand  0.208021 5.57179 3.8981
HEad  -1.7861 -10.9614 0.82527
RightUpLeg  -14.7828 -9.01757 -0.831465
RightLeg  11.9091 2.8388 0.41146
RightFoot  5.45868 0.00962656 0.290217
RightToes  -30.5149 -0.148143 -0.256182
26
root  -27.8398 34.0624 -25.6294 5.2837 46.2231 -1.53236
LeftUpLeg  -9.88223 10.5399 -2.53982
LeftLeg  12.4313 7.03887 1.07904
LeftFoot  -2.89897 -0.00905734 -0.331817
LeftToes  -9.42583 6.91067e-007 1.07128e-007
Spine  1.76406 0.568089 -1.07154
Spine1  3.40965 1.14863 -1.97911
RightShoulder  0.0216917 6.55524 5.61992
RightArm  -33.0319 -10.2162 75.6453
RightForeArm  24.4265 18.6422 3.40612
RightHand  0.33452 -5.92452 -6.20183
LeftShoulder1  0.0327292 -0.69288 -9.07181
LeftArm  -21.1941 18.1789 -63.2787
LeftForeArm  27.3035 -15.5198 -2.80143
LeftHand  0.212234 5.58532 3.9739
HEad  0.117238 -10.6389 0.629489
RightUpLeg  -14.7165 -8.90249 -0.865176
RightLeg  12.1286 2.87212 0.427475
RightFoot  5.3528 0.00831147 0.288219
RightToes  -30.5016 -0.148143 -0.256182
27
root  -27.7972 34.0571 -25.6342 5.02583 46.1411 -1.66066
LeftUpLeg  -9.74168 10.5315 -2.46549
LeftLeg  12.622 7.11512 1.11485
LeftFoot  -3.12628 -0.0112664 -0.362766
LeftToes  -9.22484 6.91067e-007 1.07128e-007
Spine  1.75828 0.563037 -1.11672
Spine1  3.41191 1.14094 -2.06122
RightShoulder  0.0193707 6.67391 5.75817
RightArm  -33.6408 -11.6358 75.1646
RightForeArm  25.9537 16.9169 3.07021
RightHand  0.336228 -5.94658 -6.16697
LeftShoulder1  0.0335696 -0.633509 -9.07067
LeftArm  -21.5213 18.6553 -62.7045
LeftForeArm  27.4982 -15.2938 -2.75854
LeftHand  0.215387 5.61625 4.01409
HEad  2.24374 -10.1761 0.49993
RightUpLeg  -14.6197 -8.76867 -0.868736
RightLeg  12.3576 2.81544 0.430534
RightFoot  5.2656 0.00723801 0.280139
RightToes  -30.5951 -0.148143 -0.256182
28
root  -27.7549 34.0522 -25.6371 4.70349 46.1948 -1.86756
LeftUpLeg  -9.6413 10.3153 -2.32401
LeftLeg  12.9078 7.24302 1.17171
LeftFoot  -3.38144 -0.0118407 -0.401152
LeftToes  -9.0521 6.91067e-007 1.07128e-007
Spine  1.76382 0.505696 -1.142
Spine1  3.43361 1.02646 -2.10296
RightShoulder  0.0166941 6.77899 5.92739
RightArm  -34.8674 -13.1597 74.7427
RightForeArm  27.617 15.3821 2.77652
RightHand  0.337741 -5.98552 -6.07663
LeftShoulder1  0.0346802 -0.609899 -9.10721
LeftArm  -21.6973 18.9404 -62.1787
LeftForeArm  27.6701 -15.0337 -2.70933
LeftHand  0.218075 5.63588 4.01024
HEad  4.5472 -9.6026 0.437986
RightUpLeg  -14.5151 -8.72842 -0.823495
RightLeg  12.6284 2.7252 0.429915
RightFoot  5.15702 0.00626925 0.268141
RightToes  -30.651 -0.148143 -0.256182
29
root  -27.7183 34.0453 -25.6383 4.36885 46.3814 -2.09329
LeftUpLeg  -9.57666 10.0549 -2.16294
LeftLeg  13.246 7.25699 1.2178
LeftFoot  -3.6447 -0.0113291 -0.434202
LeftToes  -8.95708 6.91067e-007 1.07128e-007
Spine  1.80374 0.403838 -1.16225
Spine1  3.5221 0.818224 -2.12899
RightShoulder  0.0138661 6.77284 6.13079
RightArm  -36.3454 -14.7514 74.404
RightForeArm  28.8092 14.3523 2.58189
RightHand  0.347258 -6.02613 -6.21328
LeftShoulder1  0.0360787 -0.618998 -9.18518
LeftArm  -21.7389 18.937 -61.7292
LeftForeArm  27.8435 -14.7285 -2.65176
LeftHand  0.221673 5.67559 4.08231
HEad  6.87542 -9.01024 0.392441
RightUpLeg  -14.4763 -8.63064 -0.768961
RightLeg  13.0704 2.44434 0.404996
RightFoot  4.94946 0.00648197 0.235546
RightToes  -30.7654 -0.148143 -0.256182
